<mxfile host="app.diagrams.net" modified="2023-06-07T20:36:45.402Z" agent="Mozilla/5.0 (Windows NT 10.0; Win64; x64) AppleWebKit/537.36 (KHTML, like Gecko) Chrome/114.0.0.0 Safari/537.36" version="21.3.7" etag="zn52CBNaGNiggW0kwQu7" type="github">
  <diagram name="Page-1" id="GXisVvdDxIWKSuj2VHZM">
    <mxGraphModel>
      <root>
        <mxCell id="0" />
        <mxCell id="1" parent="0" />
      </root>
    </mxGraphModel>
  </diagram>
</mxfile>
